<svg viewBox="0 0 560 620" xmlns="http://www.w3.org/2000/svg">
  <rect x="0" y="0" width="280" height="620" fill="#7A1730"/>
  <rect x="280" y="0" width="280" height="620" fill="#1F4438"/>
  <g transform="translate(90,120)">

    <circle cx="150" cy="46" r="16" fill="none" stroke="#241C1A" stroke-width="1.6" opacity="0.9"/>
    <path d="M150 62 L150 84" stroke="#241C1A" stroke-width="1.6" opacity="0.9"/>
    
<path d="M120 84 Q150 68 180 84 L188 150 L134 150 Z" fill="#7A1730" stroke="#241C1A" stroke-width="1.4"/>
<path d="M112 150 Q150 130 188 150 L228 350 Q150 380 72 350 Z" fill="#591022" stroke="#241C1A" stroke-width="1.6"/>
<path d="M112 150 Q150 130 188 150" fill="none" stroke="#C7973F" stroke-width="1.6"/>
<path d="M80 340 Q150 362 220 340" fill="none" stroke="#C7973F" stroke-width="2"/>
<path d="M90 310 Q150 332 210 310" fill="none" stroke="#E7D3A6" stroke-width="1"/>
<path d="M100 250 Q150 268 200 250" fill="none" stroke="#E7D3A6" stroke-width="1"/>
<path d="M108 200 Q150 216 192 200" fill="none" stroke="#E7D3A6" stroke-width="1"/>
<circle cx="150" cy="167" r="3" fill="#C7973F"/>
<circle cx="130" cy="180" r="2" fill="#C7973F"/><circle cx="170" cy="180" r="2" fill="#C7973F"/>
<path d="M188 150 Q225 190 220 250" fill="none" stroke="#C7973F" stroke-width="1" opacity="0.7"/>
<path d="M112 150 Q75 190 80 250" fill="none" stroke="#C7973F" stroke-width="1" opacity="0.7"/>
</g>
  <g transform="translate(370,120)">

    <circle cx="150" cy="46" r="16" fill="none" stroke="#241C1A" stroke-width="1.6" opacity="1"/>
    <path d="M150 62 L150 84" stroke="#241C1A" stroke-width="1.6" opacity="1"/>
    
<path d="M132 84 Q150 76 168 84 L176 150 Q182 260 168 340 L132 340 Q118 260 124 150 Z"
      fill="#FAF5EC" stroke="#241C1A" stroke-width="1.5"/>
<path d="M132 84 Q150 94 168 84" fill="none" stroke="#FAF5EC" stroke-width="1.3"/>
<path d="M124 160 L176 160" stroke="#C7973F" stroke-width="1.4"/>
<path d="M120 335 Q150 350 180 335" fill="none" stroke="#241C1A" stroke-width="1.2" opacity="0.5"/>
</g>
  <line x1="280" y1="0" x2="280" y2="620" stroke="#C7973F" stroke-width="2"/>
  <circle cx="280" cy="310" r="30" fill="#FAF5EC" stroke="#C7973F" stroke-width="2"/>
  <text x="280" y="317" font-family="Georgia, serif" font-size="20" fill="#7A1730" text-anchor="middle" font-style="italic">MA</text>
</svg>