<svg viewBox="0 0 400 500" xmlns="http://www.w3.org/2000/svg">
  <line x1="0" y1="0" x2="-60" y2="500" stroke="#FAF5EC" stroke-width="0.6" opacity="0.28"/><line x1="30" y1="0" x2="-30" y2="500" stroke="#FAF5EC" stroke-width="0.6" opacity="0.28"/><line x1="60" y1="0" x2="0" y2="500" stroke="#FAF5EC" stroke-width="0.6" opacity="0.28"/><line x1="90" y1="0" x2="30" y2="500" stroke="#FAF5EC" stroke-width="0.6" opacity="0.28"/><line x1="120" y1="0" x2="60" y2="500" stroke="#FAF5EC" stroke-width="0.6" opacity="0.28"/><line x1="150" y1="0" x2="90" y2="500" stroke="#FAF5EC" stroke-width="0.6" opacity="0.28"/><line x1="180" y1="0" x2="120" y2="500" stroke="#FAF5EC" stroke-width="0.6" opacity="0.28"/><line x1="210" y1="0" x2="150" y2="500" stroke="#FAF5EC" stroke-width="0.6" opacity="0.28"/><line x1="240" y1="0" x2="180" y2="500" stroke="#FAF5EC" stroke-width="0.6" opacity="0.28"/><line x1="270" y1="0" x2="210" y2="500" stroke="#FAF5EC" stroke-width="0.6" opacity="0.28"/><line x1="300" y1="0" x2="240" y2="500" stroke="#FAF5EC" stroke-width="0.6" opacity="0.28"/><line x1="330" y1="0" x2="270" y2="500" stroke="#FAF5EC" stroke-width="0.6" opacity="0.28"/><line x1="360" y1="0" x2="300" y2="500" stroke="#FAF5EC" stroke-width="0.6" opacity="0.28"/><line x1="390" y1="0" x2="330" y2="500" stroke="#FAF5EC" stroke-width="0.6" opacity="0.28"/>
  <rect x="120" y="180" width="160" height="160" fill="none" stroke="#FAF5EC" stroke-width="1" opacity="0.4"/>
  <circle cx="200" cy="260" r="60" fill="none" stroke="#FAF5EC" stroke-width="1" opacity="0.4"/>
</svg>