<svg viewBox="0 0 400 500" xmlns="http://www.w3.org/2000/svg">
  <path d="M20 40 q30 -10 34 22 q3 26 -22 34 q-30 8 -34 -22 q-3 -26 22 -34 Z" fill="none" stroke="#E7D3A6" stroke-width="1" opacity="0.55"/><circle cx="36" cy="56" r="3" fill="#E7D3A6" opacity="0.5"/><path d="M110 40 q30 -10 34 22 q3 26 -22 34 q-30 8 -34 -22 q-3 -26 22 -34 Z" fill="none" stroke="#E7D3A6" stroke-width="1" opacity="0.55"/><circle cx="126" cy="56" r="3" fill="#E7D3A6" opacity="0.5"/><path d="M200 40 q30 -10 34 22 q3 26 -22 34 q-30 8 -34 -22 q-3 -26 22 -34 Z" fill="none" stroke="#E7D3A6" stroke-width="1" opacity="0.55"/><circle cx="216" cy="56" r="3" fill="#E7D3A6" opacity="0.5"/><path d="M290 40 q30 -10 34 22 q3 26 -22 34 q-30 8 -34 -22 q-3 -26 22 -34 Z" fill="none" stroke="#E7D3A6" stroke-width="1" opacity="0.55"/><circle cx="306" cy="56" r="3" fill="#E7D3A6" opacity="0.5"/><path d="M20 270 q30 -10 34 22 q3 26 -22 34 q-30 8 -34 -22 q-3 -26 22 -34 Z" fill="none" stroke="#E7D3A6" stroke-width="1" opacity="0.55"/><circle cx="36" cy="286" r="3" fill="#E7D3A6" opacity="0.5"/><path d="M110 270 q30 -10 34 22 q3 26 -22 34 q-30 8 -34 -22 q-3 -26 22 -34 Z" fill="none" stroke="#E7D3A6" stroke-width="1" opacity="0.55"/><circle cx="126" cy="286" r="3" fill="#E7D3A6" opacity="0.5"/><path d="M200 270 q30 -10 34 22 q3 26 -22 34 q-30 8 -34 -22 q-3 -26 22 -34 Z" fill="none" stroke="#E7D3A6" stroke-width="1" opacity="0.55"/><circle cx="216" cy="286" r="3" fill="#E7D3A6" opacity="0.5"/><path d="M290 270 q30 -10 34 22 q3 26 -22 34 q-30 8 -34 -22 q-3 -26 22 -34 Z" fill="none" stroke="#E7D3A6" stroke-width="1" opacity="0.55"/><circle cx="306" cy="286" r="3" fill="#E7D3A6" opacity="0.5"/>
  <g opacity="0.35" stroke="#E7D3A6" stroke-width="1" fill="none">
    <circle cx="200" cy="250" r="150"/>
    <circle cx="200" cy="250" r="110"/>
  </g>
</svg>