<svg viewBox="0 0 300 400" xmlns="http://www.w3.org/2000/svg" role="img" aria-label="Pakistani formal wear illustration">
  <defs></defs>
  <rect width="300" height="400" fill="#F2E9DA"/>
  

    <circle cx="150" cy="46" r="16" fill="none" stroke="#241C1A" stroke-width="1.6" opacity="0.85"/>
    <path d="M150 62 L150 84" stroke="#241C1A" stroke-width="1.6" opacity="0.85"/>
    
<path d="M122 84 Q150 72 178 84 L184 160 L116 160 Z" fill="#FAF5EC" stroke="#241C1A" stroke-width="1.5"/>
<path d="M116 160 Q150 175 184 160 L200 340 L100 340 Z" fill="#E7D3A6" stroke="#241C1A" stroke-width="1.5"/>
<path d="M120 200 L180 200 M115 245 L185 245 M112 290 L188 290" stroke="#7A1730" stroke-width="1" opacity="0.6"/>
<path d="M150 84 L150 160" stroke="#7A1730" stroke-width="1" opacity="0.5"/>
<path d="M96 340 Q150 358 204 340" fill="none" stroke="#7A1730" stroke-width="2"/>
<path d="M116 160 Q80 200 90 260" fill="none" stroke="#241C1A" stroke-width="1.2" opacity="0.5"/>
<path d="M184 160 Q220 200 210 260" fill="none" stroke="#241C1A" stroke-width="1.2" opacity="0.5"/>

</svg>